# Blender v3.0.0 OBJ File: 'TeaGlass.blend'
# www.blender.org
mtllib AirLiquidContact.mtl
o Contatto_aria_liquido_AIR__outline.002
v 69.941391 239.859283 55.104225
v 55.732643 239.859344 69.312950
v -81.064484 239.859299 -39.778996
v -70.373642 239.859375 -56.793320
v 80.632149 239.859299 38.089916
v -87.701195 239.859360 -20.812412
v 87.268829 239.859360 19.123251
v -89.951073 239.859299 -0.844500
v 89.518715 239.859299 -0.844582
v -87.701195 239.859360 19.123331
v 87.268837 239.859360 -20.812492
v -81.064468 239.859360 38.089916
v 80.632072 239.859360 -39.779079
v -70.373642 239.859283 55.104225
v 69.941315 239.859314 -56.793404
v -56.164902 239.859283 69.312958
v 55.732483 239.859314 -71.002159
v -39.150669 239.859344 80.003799
v 38.718159 239.859314 -81.692909
v -20.184000 239.859344 86.640594
v 19.751572 239.859375 -88.329613
v -0.216175 239.859283 88.890305
v -20.184082 239.859375 -88.329521
v -0.216175 239.859375 -90.579399
v 19.751740 239.859283 86.640427
v -39.150669 239.859375 -81.692833
v 38.718327 239.859283 80.003799
v -56.164982 239.859314 -71.002075
v -0.216184 239.859360 -0.844548
v -0.216184 239.859360 -0.844548
v -0.216184 239.859360 -0.844550
v -0.216184 239.859360 -0.844548
v -0.216184 239.859360 -0.844550
v -0.216184 239.859360 -0.844549
v -0.216184 239.859360 -0.844549
v -0.216184 239.859360 -0.844550
v -0.216184 239.859360 -0.844550
v -0.216184 239.859360 -0.844549
v -0.216184 239.859360 -0.844549
v -0.216184 239.859360 -0.844550
v -0.216184 239.859360 -0.844550
v -0.216184 239.859360 -0.844548
v -0.216184 239.859360 -0.844548
v -0.216184 239.859360 -0.844548
v -0.216184 239.859360 -0.844548
v -0.216184 239.859360 -0.844548
v -0.216184 239.859360 -0.844548
v -0.216186 239.859360 -0.844553
v -0.216186 239.859360 -0.844553
v -0.216186 239.859360 -0.844553
v -0.216186 239.859360 -0.844553
v -0.216186 239.859360 -0.844553
v -0.216186 239.859360 -0.844553
v -0.216184 239.859360 -0.844548
v -0.216184 239.859360 -0.844548
v -0.216184 239.859360 -0.844548
vt 0.000000 0.000000
vt 0.000000 0.000000
vt 0.000000 0.000000
vt 0.000000 0.000000
vt 0.000000 0.000000
vt 0.000000 0.000000
vt 0.000000 0.000000
vt 0.000000 0.000000
vt 0.000000 0.000000
vt 0.000000 0.000000
vt 0.000000 0.000000
vt 0.000000 0.000000
vt 0.000000 0.000000
vt 0.000000 0.000000
vt 0.000000 0.000000
vt 0.000000 0.000000
vt 0.000000 0.000000
vt 0.000000 0.000000
vt 0.000000 0.000000
vt 0.000000 0.000000
vt 0.000000 0.000000
vt 0.000000 0.000000
vt 0.000000 0.000000
vt 0.000000 0.000000
vt 0.000000 0.000000
vt 0.000000 0.000000
vt 0.000000 0.000000
vt 0.000000 0.000000
vt 0.000000 0.000000
vt 0.000000 0.000000
vt 0.000000 0.000000
vt 0.000000 0.000000
vt 0.000000 0.000000
vt 0.000000 0.000000
vt 0.000000 0.000000
vt 0.000000 0.000000
vt 0.000000 0.000000
vt 0.000000 0.000000
vt 0.000000 0.000000
vt 0.000000 0.000000
vt 0.000000 0.000000
vt 0.000000 0.000000
vt 0.000000 0.000000
vt 0.000000 0.000000
vt 0.000000 0.000000
vt 0.000000 0.000000
vt 0.000000 0.000000
vt 0.000000 0.000000
vt 0.000000 0.000000
vt 0.000000 0.000000
vt 0.000000 0.000000
vt 0.000000 0.000000
vt 0.000000 0.000000
vt 0.000000 0.000000
vt 0.000000 0.000000
vt 0.000000 0.000000
vn -0.0000 1.0000 -0.0000
usemtl None.002
s off
f 13/1/1 15/2/1 43/3/1 41/4/1
f 21/5/1 24/6/1 52/7/1 49/8/1
f 14/9/1 16/10/1 44/11/1 42/12/1
f 2/13/1 1/14/1 29/15/1 30/16/1
f 18/17/1 20/18/1 48/19/1 46/20/1
f 16/10/1 18/17/1 46/20/1 44/11/1
f 4/21/1 3/22/1 31/23/1 32/24/1
f 17/25/1 19/26/1 47/27/1 45/28/1
f 1/14/1 5/29/1 33/30/1 29/15/1
f 19/26/1 21/5/1 49/8/1 47/27/1
f 3/22/1 6/31/1 34/32/1 31/23/1
f 20/18/1 22/33/1 50/34/1 48/19/1
f 5/29/1 7/35/1 35/36/1 33/30/1
f 24/6/1 23/37/1 51/38/1 52/7/1
f 6/31/1 8/39/1 36/40/1 34/32/1
f 23/37/1 26/41/1 54/42/1 51/38/1
f 7/35/1 9/43/1 37/44/1 35/36/1
f 25/45/1 27/46/1 55/47/1 53/48/1
f 8/39/1 10/49/1 38/50/1 36/40/1
f 26/41/1 28/51/1 56/52/1 54/42/1
f 9/43/1 11/53/1 39/54/1 37/44/1
f 28/51/1 4/21/1 32/24/1 56/52/1
f 10/49/1 12/55/1 40/56/1 38/50/1
f 22/33/1 25/45/1 53/48/1 50/34/1
f 11/53/1 13/1/1 41/4/1 39/54/1
f 27/46/1 2/13/1 30/16/1 55/47/1
f 12/55/1 14/9/1 42/12/1 40/56/1
f 15/2/1 17/25/1 45/28/1 43/3/1
