# Blender v3.0.0 OBJ File: 'TeaGlass.blend'
# www.blender.org
mtllib Straw.mtl
o Cannuccia_STRAW
v 57.385441 3.408135 -6.159318
v -112.842583 461.309418 -8.430789
v -101.505516 465.540222 6.743066
v 67.095711 7.031830 6.837187
v 60.164600 4.445315 -8.524924
v -105.150970 464.179779 8.616881
v -109.197144 462.669861 -10.304605
v 63.630161 5.738509 7.681457
v 63.630127 5.738610 -9.369200
v -105.151016 464.179901 -10.304617
v -109.197098 462.669800 8.616900
v 67.095665 7.031931 -8.524923
v 60.164627 4.445213 6.837187
v -101.505585 465.540283 -8.430799
v -112.842545 461.309357 6.743066
v 69.874809 8.069060 -6.159329
v 57.385441 3.408134 4.471582
v -98.982834 466.481689 -5.054295
v -115.365288 460.367920 3.366562
v 71.417130 8.644637 -2.740943
v 55.843147 2.832582 1.053198
v -98.082474 466.817719 -0.843866
v -116.265640 460.031921 -0.843858
v 71.417137 8.644637 1.053189
v 55.843147 2.832582 -2.740935
v -98.982826 466.481689 3.366562
v -115.365288 460.367920 -5.054286
v 69.874817 8.069058 4.471571
vt 0.000000 0.000000
vt 0.000000 0.000000
vt 0.000000 0.000000
vt 0.000000 0.000000
vt 0.000000 0.000000
vt 0.000000 0.000000
vt 0.000000 0.000000
vt 0.000000 0.000000
vt 0.000000 0.000000
vt 0.000000 0.000000
vt 0.000000 0.000000
vt 0.000000 0.000000
vt 0.000000 0.000000
vt 0.000000 0.000000
vt 0.000000 0.000000
vt 0.000000 0.000000
vt 0.000000 0.000000
vt 0.000000 0.000000
vt 0.000000 0.000000
vt 0.000000 0.000000
vt 0.000000 0.000000
vt 0.000000 0.000000
vt 0.000000 0.000000
vt 0.000000 0.000000
vt 0.000000 0.000000
vt 0.000000 0.000000
vt 0.000000 0.000000
vt 0.000000 0.000000
vn 0.2092 0.0760 -0.9749
vn 0.4075 0.1490 -0.9010
vn 0.0010 -0.0027 -1.0000
vn -0.8434 -0.3169 -0.4339
vn -0.7315 -0.2761 -0.6235
vn -0.9124 -0.3436 -0.2225
vn -0.5835 -0.2198 -0.7818
vn -0.2078 -0.0796 -0.9749
vn -0.4055 -0.1544 -0.9010
vn 0.2092 0.0760 0.9749
vn 0.0010 -0.0027 1.0000
vn 0.4075 0.1490 0.9010
vn 0.8448 0.3132 0.4339
vn 0.5848 0.2162 0.7818
vn 0.7335 0.2706 0.6235
vn -0.2078 -0.0796 0.9749
vn -0.4055 -0.1544 0.9010
vn 0.5848 0.2162 -0.7818
vn -0.5835 -0.2198 0.7818
vn 0.7335 0.2706 -0.6235
vn -0.7315 -0.2761 0.6235
vn 0.8448 0.3132 -0.4339
vn -0.8434 -0.3169 0.4339
vn 0.9144 0.3381 -0.2225
vn -0.9124 -0.3436 0.2225
vn 0.9376 0.3478 -0.0000
vn -0.9362 -0.3515 0.0000
vn 0.9144 0.3381 0.2225
usemtl None.004
s 1
f 10/1/1 12/2/2 9/3/3
f 27/4/4 1/5/5 25/6/6
f 2/7/7 7/8/8 5/9/9
f 6/10/10 8/11/11 4/12/12
f 7/8/8 9/3/3 5/9/9
f 26/13/13 3/14/14 28/15/15
f 6/10/10 11/16/16 8/11/11
f 7/8/8 10/1/1 9/3/3
f 11/16/16 13/17/17 8/11/11
f 10/1/1 14/18/18 12/2/2
f 11/16/16 15/19/19 13/17/17
f 14/18/18 16/20/20 12/2/2
f 15/19/19 17/21/21 13/17/17
f 14/18/18 18/22/22 16/20/20
f 15/19/19 19/23/23 17/21/21
f 18/22/22 20/24/24 16/20/20
f 19/23/23 21/25/25 17/21/21
f 18/22/22 22/26/26 20/24/24
f 19/23/23 23/27/27 21/25/25
f 22/26/26 24/28/28 20/24/24
f 23/27/27 25/6/6 21/25/25
f 22/26/26 26/13/13 24/28/28
f 23/27/27 27/4/4 25/6/6
f 26/13/13 28/15/15 24/28/28
f 2/7/7 5/9/9 1/5/5
f 3/14/14 6/10/10 4/12/12
f 27/4/4 2/7/7 1/5/5
f 4/12/12 28/15/15 3/14/14
