# Blender v3.0.0 OBJ File: 'Flowerpot.blend'
# www.blender.org
mtllib Flower.mtl
o testa_tulipano_uploads_files_1916312_tulips_alutaroma_free.001
v -0.003842 2.804759 -0.044083
v -0.033067 2.693655 0.003165
v 0.012369 2.700603 0.070325
v 0.048308 2.818238 0.051359
v -0.036417 2.737631 0.187328
v 0.004332 2.871652 0.178014
v -0.032488 2.930946 -0.043877
v -0.121991 2.923626 -0.077300
v -0.117843 2.822507 -0.077785
v -0.081755 3.053107 -0.006738
v 0.010780 2.937487 0.052071
v -0.063548 3.061380 0.038728
v -0.062765 2.642863 0.100778
v -0.087740 2.635982 0.061161
v 0.001450 2.966075 0.150845
v -0.046355 3.049996 0.083592
v -0.162991 2.710657 -0.006867
v -0.110100 3.018680 -0.046728
v -0.185444 2.795292 0.207374
v -0.131193 2.685270 0.170901
v -0.205430 2.673534 0.101295
v -0.250687 2.779532 0.125829
v -0.245736 2.785909 0.011510
v -0.211336 2.904600 0.204278
v -0.097538 2.929510 0.227305
v -0.062698 2.827220 0.222348
v -0.215608 3.024613 0.148401
v -0.282420 2.886747 0.131771
v -0.249020 3.013804 0.113665
v -0.277405 2.883606 0.012252
v -0.268308 2.984636 0.076001
v -0.178616 3.030133 0.186306
v 0.063269 2.781527 0.049883
v 0.014391 2.678279 0.030615
v -0.052033 2.639657 0.103422
v 0.042842 2.766728 0.156554
v -0.089328 2.706545 0.213276
v -0.061257 2.814386 0.222243
v 0.062110 2.911228 0.070984
v 0.015007 2.941483 -0.029922
v 0.002418 2.841980 -0.058890
v 0.020233 3.037658 0.109649
v 0.033786 2.889983 0.170370
v 0.006016 3.031955 0.156903
v -0.074746 2.626766 0.067554
v -0.072622 2.629184 0.048277
v -0.041956 2.905521 0.218576
v -0.011606 3.008451 0.196659
v -0.089607 2.624057 0.072875
v -0.042780 2.745196 -0.054354
v -0.081186 2.629165 0.039217
v 0.019324 3.020834 0.052027
v -0.232269 2.739154 -0.004632
v -0.185614 2.644364 0.020403
v -0.100986 2.659225 -0.037900
v -0.152198 2.747994 -0.079781
v -0.020613 2.703456 -0.022408
v -0.046056 2.833431 -0.081786
v -0.268750 2.858621 -0.021583
v -0.304031 2.879679 0.088315
v -0.265375 2.766503 0.118980
v -0.259320 3.001605 -0.012111
v -0.190908 2.882471 -0.087544
v -0.213452 3.004807 -0.034928
v -0.076551 2.623277 0.049413
v -0.095306 2.620006 0.062695
v -0.093735 2.919021 -0.098390
v -0.179480 2.988489 -0.070426
v -0.205392 2.664508 0.094449
v -0.292747 2.981583 0.025965
v -0.100744 2.734850 0.237482
v -0.069362 2.642514 0.174956
v -0.169944 2.625580 0.150616
v -0.202086 2.722280 0.197648
v -0.234501 2.670207 0.049479
v -0.271642 2.764297 0.089643
v -0.127253 2.862249 0.255808
v -0.021664 2.902180 0.231880
v 0.016909 2.780514 0.200965
v -0.164529 2.993537 0.231168
v -0.219873 2.844891 0.208359
v -0.208646 2.989745 0.208656
v -0.089430 2.617591 0.073314
v -0.070858 2.619895 0.078947
v -0.286843 2.870884 0.134410
v -0.244025 2.969190 0.180919
v -0.092217 2.617539 0.057544
v 0.021090 2.687597 0.151192
v -0.060571 2.621577 0.072108
v -0.106780 2.978092 0.236713
vt 0.113983 0.746700
vt 0.113983 0.636017
vt 0.223420 0.636017
vt 0.223420 0.746699
vt 0.324482 0.636017
vt 0.332857 0.746699
vt 0.117433 0.875899
vt 0.029074 0.857382
vt 0.004546 0.746700
vt 0.144482 0.997747
vt 0.219969 0.875899
vt 0.192921 0.997747
vt 0.254433 0.525335
vt 0.082969 0.525335
vt 0.308329 0.857382
vt 0.241360 0.968064
vt 0.012921 0.636017
vt 0.096043 0.968064
vt 0.114005 0.746603
vt 0.114005 0.635921
vt 0.223441 0.635921
vt 0.223441 0.746603
vt 0.324503 0.635921
vt 0.332878 0.746603
vt 0.117455 0.875802
vt 0.029096 0.857285
vt 0.004568 0.746603
vt 0.144504 0.997650
vt 0.219991 0.875802
vt 0.192943 0.997650
vt 0.254455 0.525238
vt 0.082991 0.525238
vt 0.308350 0.857285
vt 0.241382 0.967967
vt 0.012943 0.635921
vt 0.096065 0.967967
vt 0.113983 0.746700
vt 0.113983 0.636017
vt 0.223420 0.636017
vt 0.223420 0.746699
vt 0.324482 0.636017
vt 0.332857 0.746699
vt 0.117433 0.875899
vt 0.029074 0.857382
vt 0.004546 0.746700
vt 0.144482 0.997747
vt 0.219969 0.875899
vt 0.192921 0.997747
vt 0.211975 0.504544
vt 0.125427 0.504544
vt 0.308329 0.857382
vt 0.241360 0.968064
vt 0.254433 0.525335
vt 0.012921 0.636017
vt 0.082969 0.525335
vt 0.096043 0.968064
vt 0.113960 0.746638
vt 0.113960 0.635955
vt 0.223396 0.635955
vt 0.223397 0.746637
vt 0.324458 0.635955
vt 0.332833 0.746637
vt 0.117410 0.875837
vt 0.029051 0.857320
vt 0.004523 0.746638
vt 0.144459 0.997685
vt 0.219946 0.875837
vt 0.192898 0.997685
vt 0.211952 0.504482
vt 0.125404 0.504482
vt 0.308305 0.857320
vt 0.241337 0.968002
vt 0.254410 0.525273
vt 0.012898 0.635955
vt 0.082946 0.525273
vt 0.096020 0.968002
vt 0.113983 0.746700
vt 0.113983 0.636017
vt 0.223420 0.636017
vt 0.223420 0.746699
vt 0.324482 0.636017
vt 0.332857 0.746699
vt 0.117433 0.875899
vt 0.029074 0.857382
vt 0.004546 0.746700
vt 0.144482 0.997747
vt 0.219969 0.875899
vt 0.192921 0.997747
vt 0.211975 0.504544
vt 0.125427 0.504544
vt 0.308329 0.857382
vt 0.241360 0.968064
vt 0.254433 0.525335
vt 0.012921 0.636017
vt 0.082969 0.525335
vt 0.096043 0.968064
vn -0.8186 0.3622 0.4458
vn -0.8812 0.2216 -0.4177
vn -0.3151 -0.0483 0.9478
vn -0.8046 -0.4424 0.3961
vn -0.8602 -0.2336 0.4533
vn -0.5409 0.8022 0.2528
vn -0.8746 -0.4734 0.1046
vn -0.9670 -0.2021 -0.1551
vn -0.6505 0.6028 -0.4620
vn 0.0349 0.6920 0.7210
vn -0.0860 0.4888 0.8681
vn -0.4098 -0.3350 0.8484
vn 0.6081 0.4624 -0.6453
vn 0.8150 0.5108 0.2735
vn 0.1465 0.0507 -0.9879
vn 0.7243 -0.2747 -0.6324
vn 0.7121 0.1984 -0.6735
vn 0.1968 0.9211 -0.3358
vn 0.9835 -0.1725 -0.0539
vn 0.9548 0.2940 0.0448
vn 0.4049 0.8043 0.4349
vn -0.2640 0.6894 -0.6745
vn 0.0045 0.3388 -0.9408
vn 0.4043 -0.2320 -0.8847
vn -0.7960 0.5650 -0.2170
vn -0.5190 0.4618 -0.7193
vn -0.8968 -0.0513 0.4395
vn -0.9275 -0.2118 -0.3080
vn -0.9728 -0.0073 -0.2314
vn -0.4942 0.8691 0.0195
vn -0.6780 -0.0981 -0.7285
vn -0.5175 0.0651 -0.8532
vn 0.0243 0.8779 -0.4782
vn -0.2857 0.6752 0.6801
vn -0.7195 0.2919 0.6302
vn -0.9157 -0.3141 0.2507
vn 0.4924 0.5176 0.6997
vn -0.2864 0.3180 0.9038
vn 0.9198 0.3379 0.1993
vn 0.5981 -0.1545 0.7864
vn 0.6145 0.2546 0.7467
vn 0.0846 0.9300 0.3578
vn 0.3528 -0.1861 0.9170
vn -0.0026 0.1090 0.9940
vn -0.5205 0.7418 0.4228
vn 0.3125 0.9256 -0.2136
vn 0.8727 0.4732 0.1198
vn 0.9069 0.0142 0.4210
vn 0.1828 0.5382 -0.8227
vn 0.8235 0.4543 -0.3398
vn -0.2986 0.1094 -0.9481
vn 0.4595 -0.0349 -0.8875
vn 0.3818 0.1731 -0.9079
vn -0.1019 0.9706 -0.2179
vn 0.7041 -0.0199 -0.7098
vn 0.8173 0.2440 -0.5220
vn 0.3096 0.9341 0.1778
vn -0.4641 0.8594 -0.2146
vn -0.4147 0.4122 -0.8113
vn -0.0889 -0.1467 -0.9852
usemtl Default_OBJ
s off
f 1/1/1 2/2/1 3/3/1 4/4/1
f 4/4/2 3/3/2 5/5/2 6/6/2
f 1/1/3 7/7/3 8/8/3 9/9/3
f 10/10/4 7/7/4 11/11/4 12/12/4
f 7/7/5 1/1/5 4/4/5 11/11/5
f 13/13/6 3/3/6 2/2/6 14/14/6
f 12/12/7 11/11/7 15/15/7 16/16/7
f 11/11/8 4/4/8 6/6/8 15/15/8
f 3/3/9 13/13/9 5/5/9
f 17/17/10 14/14/10 2/2/10
f 2/2/11 1/1/11 9/9/11 17/17/11
f 18/18/12 8/8/12 7/7/12 10/10/12
f 19/19/13 20/20/13 21/21/13 22/22/13
f 22/22/14 21/21/14 17/23/14 23/24/14
f 19/19/15 24/25/15 25/26/15 26/27/15
f 27/28/16 24/25/16 28/29/16 29/30/16
f 24/25/17 19/19/17 22/22/17 28/29/17
f 14/31/18 21/21/18 20/20/18 13/32/18
f 29/30/19 28/29/19 30/33/19 31/34/19
f 28/29/20 22/22/20 23/24/20 30/33/20
f 21/21/21 14/31/21 17/23/21
f 5/35/22 13/32/22 20/20/22
f 20/20/23 19/19/23 26/27/23 5/35/23
f 32/36/24 25/26/24 24/25/24 27/28/24
f 33/37/25 34/38/25 35/39/25 36/40/25
f 36/40/26 35/39/26 37/41/26 38/42/26
f 33/37/27 39/43/27 40/44/27 41/45/27
f 42/46/28 39/43/28 43/47/28 44/48/28
f 39/43/29 33/37/29 36/40/29 43/47/29
f 45/49/30 35/39/30 34/38/30 46/50/30
f 44/48/31 43/47/31 47/51/31 48/52/31
f 43/47/32 36/40/32 38/42/32 47/51/32
f 49/53/33 37/41/33 35/39/33 45/49/33
f 46/50/34 34/38/34 50/54/34 51/55/34
f 34/38/35 33/37/35 41/45/35 50/54/35
f 52/56/36 40/44/36 39/43/36 42/46/36
f 53/57/37 54/58/37 55/59/37 56/60/37
f 56/60/38 55/59/38 57/61/38 58/62/38
f 53/57/39 59/63/39 60/64/39 61/65/39
f 62/66/40 59/63/40 63/67/40 64/68/40
f 59/63/41 53/57/41 56/60/41 63/67/41
f 65/69/42 55/59/42 54/58/42 66/70/42
f 64/68/43 63/67/43 67/71/43 68/72/43
f 63/67/44 56/60/44 58/62/44 67/71/44
f 51/73/45 57/61/45 55/59/45 65/69/45
f 66/70/46 54/58/46 69/74/46 49/75/46
f 54/58/47 53/57/47 61/65/47 69/74/47
f 70/76/48 60/64/48 59/63/48 62/66/48
f 71/77/49 72/78/49 73/79/49 74/80/49
f 74/80/50 73/79/50 75/81/50 76/82/50
f 71/77/51 77/83/51 78/84/51 79/85/51
f 80/86/52 77/83/52 81/87/52 82/88/52
f 77/83/53 71/77/53 74/80/53 81/87/53
f 83/89/54 73/79/54 72/78/54 84/90/54
f 82/88/55 81/87/55 85/91/55 86/92/55
f 81/87/56 74/80/56 76/82/56 85/91/56
f 87/93/57 75/81/57 73/79/57 83/89/57
f 84/90/58 72/78/58 88/94/58 89/95/58
f 72/78/59 71/77/59 79/85/59 88/94/59
f 90/96/60 78/84/60 77/83/60 80/86/60
