# Blender v3.0.0 OBJ File: 'WaterGlass.blend'
# www.blender.org
mtllib AirGlassContact.mtl
o Contatto_aria_vetro_AIR__outline
v 0.817016 1.423297 0.600257
v 0.659141 1.423298 0.758132
v 0.736156 3.115582 0.854706
v 0.913590 3.115582 0.677272
v -0.860827 1.423297 -0.454001
v -0.742040 1.423298 -0.643049
v -0.838615 3.115582 -0.720064
v -0.972117 3.115582 -0.507596
v 0.935802 1.423297 0.411209
v 1.047091 3.115582 0.464803
v -0.934568 1.423298 -0.243261
v -1.054994 3.115582 -0.270747
v 1.009543 1.423298 0.200468
v 1.129968 3.115582 0.227954
v -0.959567 1.423297 -0.021396
v -1.083089 3.115582 -0.021395
v 1.034541 1.423297 -0.021397
v 1.158064 3.115582 -0.021396
v -0.934568 1.423298 0.200469
v -1.054994 3.115582 0.227955
v 1.009543 1.423298 -0.243262
v 1.129968 3.115582 -0.270748
v -0.860827 1.423298 0.411209
v -0.972117 3.115582 0.464804
v 0.935801 1.423298 -0.454002
v 1.047091 3.115582 -0.507597
v -0.742040 1.423297 0.600257
v -0.838615 3.115582 0.677272
v 0.817015 1.423297 -0.643050
v 0.913589 3.115582 -0.720065
v -0.584165 1.423297 0.758132
v -0.661180 3.115582 0.854706
v 0.659139 1.423297 -0.800925
v 0.736154 3.115582 -0.897499
v -0.395118 1.423298 0.876919
v -0.448712 3.115582 0.988208
v 0.470091 1.423297 -0.919711
v 0.523686 3.115582 -1.031000
v -0.184377 1.423298 0.950661
v -0.211865 3.115582 1.071085
v 0.259351 1.423298 -0.993452
v 0.286837 3.115582 -1.113877
v 0.037487 1.423297 0.975658
v 0.037487 3.115582 1.099180
v -0.184378 1.423298 -0.993451
v 0.037487 1.423298 -1.018450
v 0.037487 3.115582 -1.141973
v -0.211865 3.115582 -1.113877
v 0.259353 1.423297 0.950659
v 0.286839 3.115582 1.071085
v -0.395118 1.423298 -0.919710
v -0.448713 3.115582 -1.031000
v 0.470093 1.423297 0.876919
v 0.523688 3.115582 0.988208
v -0.584166 1.423297 -0.800924
v -0.661181 3.115582 -0.897498
vt 0.000000 0.000000
vt 0.000000 0.000000
vt 0.000000 0.000000
vt 0.000000 0.000000
vt 0.000000 0.000000
vt 0.000000 0.000000
vt 0.000000 0.000000
vt 0.000000 0.000000
vt 0.000000 0.000000
vt 0.000000 0.000000
vt 0.000000 0.000000
vt 0.000000 0.000000
vt 0.000000 0.000000
vt 0.000000 0.000000
vt 0.000000 0.000000
vt 0.000000 0.000000
vt 0.000000 0.000000
vt 0.000000 0.000000
vt 0.000000 0.000000
vt 0.000000 0.000000
vt 0.000000 0.000000
vt 0.000000 0.000000
vt 0.000000 0.000000
vt 0.000000 0.000000
vt 0.000000 0.000000
vt 0.000000 0.000000
vt 0.000000 0.000000
vt 0.000000 0.000000
vt 0.000000 0.000000
vt 0.000000 0.000000
vt 0.000000 0.000000
vt 0.000000 0.000000
vt 0.000000 0.000000
vt 0.000000 0.000000
vt 0.000000 0.000000
vt 0.000000 0.000000
vt 0.000000 0.000000
vt 0.000000 0.000000
vt 0.000000 0.000000
vt 0.000000 0.000000
vt 0.000000 0.000000
vt 0.000000 0.000000
vt 0.000000 0.000000
vt 0.000000 0.000000
vt 0.000000 0.000000
vt 0.000000 0.000000
vt 0.000000 0.000000
vt 0.000000 0.000000
vt 0.000000 0.000000
vt 0.000000 0.000000
vt 0.000000 0.000000
vt 0.000000 0.000000
vt 0.000000 0.000000
vt 0.000000 0.000000
vt 0.000000 0.000000
vt 0.000000 0.000000
vn -0.7798 0.0728 -0.6218
vn -0.6218 0.0728 -0.7798
vn 0.8986 0.0728 0.4327
vn 0.7798 0.0728 0.6218
vn -0.8986 0.0728 -0.4327
vn 0.9723 0.0728 0.2219
vn -0.9723 0.0728 -0.2219
vn 0.9973 0.0728 -0.0000
vn -0.9973 0.0728 -0.0000
vn 0.9723 0.0728 -0.2219
vn -0.9723 0.0728 0.2219
vn 0.8986 0.0728 -0.4327
vn -0.8986 0.0728 0.4327
vn 0.7798 0.0728 -0.6218
vn -0.7798 0.0728 0.6218
vn 0.6218 0.0728 -0.7798
vn -0.6218 0.0728 0.7798
vn 0.4327 0.0728 -0.8986
vn -0.4327 0.0728 0.8986
vn 0.2219 0.0728 -0.9723
vn -0.2219 0.0728 0.9723
vn -0.0000 0.0728 -0.9973
vn 0.2219 0.0728 0.9723
vn 0.0000 0.0728 0.9973
vn -0.2219 0.0728 -0.9723
vn 0.4327 0.0728 0.8986
vn -0.4327 0.0728 -0.8986
vn 0.6218 0.0728 0.7798
usemtl None.002
s 1
f 1/1/1 2/2/2 3/3/2 4/4/1
f 5/5/3 6/6/4 7/7/4 8/8/3
f 9/9/5 1/1/1 4/4/1 10/10/5
f 11/11/6 5/5/3 8/8/3 12/12/6
f 13/13/7 9/9/5 10/10/5 14/14/7
f 15/15/8 11/11/6 12/12/6 16/16/8
f 17/17/9 13/13/7 14/14/7 18/18/9
f 19/19/10 15/15/8 16/16/8 20/20/10
f 21/21/11 17/17/9 18/18/9 22/22/11
f 23/23/12 19/19/10 20/20/10 24/24/12
f 25/25/13 21/21/11 22/22/11 26/26/13
f 27/27/14 23/23/12 24/24/12 28/28/14
f 29/29/15 25/25/13 26/26/13 30/30/15
f 31/31/16 27/27/14 28/28/14 32/32/16
f 33/33/17 29/29/15 30/30/15 34/34/17
f 35/35/18 31/31/16 32/32/16 36/36/18
f 37/37/19 33/33/17 34/34/17 38/38/19
f 39/39/20 35/35/18 36/36/18 40/40/20
f 41/41/21 37/37/19 38/38/19 42/42/21
f 43/43/22 39/39/20 40/40/20 44/44/22
f 45/45/23 46/46/24 47/47/24 48/48/23
f 46/46/24 41/41/21 42/42/21 47/47/24
f 49/49/25 43/43/22 44/44/22 50/50/25
f 51/51/26 45/45/23 48/48/23 52/52/26
f 53/53/27 49/49/25 50/50/25 54/54/27
f 55/55/28 51/51/26 52/52/26 56/56/28
f 2/2/2 53/53/27 54/54/27 3/3/2
f 6/6/4 55/55/28 56/56/28 7/7/4
