# Blender v3.0.0 OBJ File: 'WaterGlass.blend'
# www.blender.org
mtllib AirLiquidContact.mtl
o Contatto_aria_liquido_AIR__outline.002
v 0.817016 1.423297 0.600257
v 0.659141 1.423298 0.758132
v -0.860827 1.423297 -0.454001
v -0.742040 1.423298 -0.643049
v 0.935802 1.423297 0.411209
v -0.934568 1.423298 -0.243261
v 1.009543 1.423298 0.200468
v -0.959567 1.423297 -0.021396
v 1.034541 1.423297 -0.021397
v -0.934568 1.423298 0.200469
v 1.009543 1.423298 -0.243262
v -0.860827 1.423298 0.411209
v 0.935801 1.423298 -0.454002
v -0.742040 1.423297 0.600257
v 0.817015 1.423297 -0.643050
v -0.584165 1.423297 0.758132
v 0.659139 1.423297 -0.800925
v -0.395118 1.423298 0.876919
v 0.470091 1.423297 -0.919711
v -0.184377 1.423298 0.950661
v 0.259351 1.423298 -0.993452
v 0.037487 1.423297 0.975658
v -0.184378 1.423298 -0.993451
v 0.037487 1.423298 -1.018450
v 0.259353 1.423297 0.950659
v -0.395118 1.423298 -0.919710
v 0.470093 1.423297 0.876919
v -0.584166 1.423297 -0.800924
v 0.037487 1.423298 -0.021396
v 0.037487 1.423298 -0.021396
v 0.037487 1.423298 -0.021396
v 0.037487 1.423298 -0.021396
v 0.037487 1.423298 -0.021396
v 0.037487 1.423298 -0.021396
v 0.037487 1.423298 -0.021396
v 0.037487 1.423298 -0.021396
v 0.037487 1.423298 -0.021396
v 0.037487 1.423298 -0.021396
v 0.037487 1.423298 -0.021396
v 0.037487 1.423298 -0.021396
v 0.037487 1.423298 -0.021396
v 0.037487 1.423298 -0.021396
v 0.037487 1.423298 -0.021396
v 0.037487 1.423298 -0.021396
v 0.037487 1.423298 -0.021396
v 0.037487 1.423298 -0.021396
v 0.037487 1.423298 -0.021396
v 0.037487 1.423298 -0.021396
v 0.037487 1.423298 -0.021396
v 0.037487 1.423298 -0.021396
v 0.037487 1.423298 -0.021396
v 0.037487 1.423298 -0.021396
v 0.037487 1.423298 -0.021396
v 0.037487 1.423298 -0.021396
v 0.037487 1.423298 -0.021396
v 0.037487 1.423298 -0.021396
vt 0.000000 0.000000
vt 0.000000 0.000000
vt 0.000000 0.000000
vt 0.000000 0.000000
vt 0.000000 0.000000
vt 0.000000 0.000000
vt 0.000000 0.000000
vt 0.000000 0.000000
vt 0.000000 0.000000
vt 0.000000 0.000000
vt 0.000000 0.000000
vt 0.000000 0.000000
vt 0.000000 0.000000
vt 0.000000 0.000000
vt 0.000000 0.000000
vt 0.000000 0.000000
vt 0.000000 0.000000
vt 0.000000 0.000000
vt 0.000000 0.000000
vt 0.000000 0.000000
vt 0.000000 0.000000
vt 0.000000 0.000000
vt 0.000000 0.000000
vt 0.000000 0.000000
vt 0.000000 0.000000
vt 0.000000 0.000000
vt 0.000000 0.000000
vt 0.000000 0.000000
vt 0.000000 0.000000
vt 0.000000 0.000000
vt 0.000000 0.000000
vt 0.000000 0.000000
vt 0.000000 0.000000
vt 0.000000 0.000000
vt 0.000000 0.000000
vt 0.000000 0.000000
vt 0.000000 0.000000
vt 0.000000 0.000000
vt 0.000000 0.000000
vt 0.000000 0.000000
vt 0.000000 0.000000
vt 0.000000 0.000000
vt 0.000000 0.000000
vt 0.000000 0.000000
vt 0.000000 0.000000
vt 0.000000 0.000000
vt 0.000000 0.000000
vt 0.000000 0.000000
vt 0.000000 0.000000
vt 0.000000 0.000000
vt 0.000000 0.000000
vt 0.000000 0.000000
vt 0.000000 0.000000
vt 0.000000 0.000000
vt 0.000000 0.000000
vt 0.000000 0.000000
vn -0.0000 1.0000 -0.0000
usemtl None.002
s off
f 13/1/1 15/2/1 43/3/1 41/4/1
f 21/5/1 24/6/1 52/7/1 49/8/1
f 14/9/1 16/10/1 44/11/1 42/12/1
f 2/13/1 1/14/1 29/15/1 30/16/1
f 18/17/1 20/18/1 48/19/1 46/20/1
f 16/10/1 18/17/1 46/20/1 44/11/1
f 4/21/1 3/22/1 31/23/1 32/24/1
f 17/25/1 19/26/1 47/27/1 45/28/1
f 1/14/1 5/29/1 33/30/1 29/15/1
f 19/26/1 21/5/1 49/8/1 47/27/1
f 3/22/1 6/31/1 34/32/1 31/23/1
f 20/18/1 22/33/1 50/34/1 48/19/1
f 5/29/1 7/35/1 35/36/1 33/30/1
f 24/6/1 23/37/1 51/38/1 52/7/1
f 6/31/1 8/39/1 36/40/1 34/32/1
f 23/37/1 26/41/1 54/42/1 51/38/1
f 7/35/1 9/43/1 37/44/1 35/36/1
f 25/45/1 27/46/1 55/47/1 53/48/1
f 8/39/1 10/49/1 38/50/1 36/40/1
f 26/41/1 28/51/1 56/52/1 54/42/1
f 9/43/1 11/53/1 39/54/1 37/44/1
f 28/51/1 4/21/1 32/24/1 56/52/1
f 10/49/1 12/55/1 40/56/1 38/50/1
f 22/33/1 25/45/1 53/48/1 50/34/1
f 11/53/1 13/1/1 41/4/1 39/54/1
f 27/46/1 2/13/1 30/16/1 55/47/1
f 12/55/1 14/9/1 42/12/1 40/56/1
f 15/2/1 17/25/1 45/28/1 43/3/1
