# Blender v3.0.0 OBJ File: 'WaterGlass.blend'
# www.blender.org
mtllib WaterGlass.mtl
o Bicchiere_base_GLASS__base
v 0.605834 0.010832 0.691286
v 0.037487 0.012013 -0.021397
v 0.750172 0.010832 0.546948
v -0.675197 0.010833 -0.589744
v -0.783797 0.010833 -0.416907
v 0.858772 0.010832 0.374112
v -0.851215 0.010832 -0.224238
v 0.926190 0.010832 0.181442
v -0.874069 0.010832 -0.021397
v 0.949044 0.010832 -0.021398
v -0.851215 0.010832 0.181443
v 0.926190 0.010832 -0.224239
v -0.783797 0.010832 0.374113
v 0.858771 0.010833 -0.416908
v -0.675197 0.010832 0.546949
v 0.750171 0.010833 -0.589745
v -0.530859 0.010832 0.691287
v 0.605833 0.010833 -0.734081
v -0.358023 0.010832 0.799887
v 0.432995 0.010833 -0.842683
v -0.165353 0.010832 0.867305
v 0.240326 0.010833 -0.910099
v 0.037487 0.010832 0.890159
v 0.037487 0.010833 -0.932954
v -0.165353 0.010833 -0.910099
v 0.240328 0.010832 0.867305
v -0.358023 0.010833 -0.842682
v 0.432997 0.010832 0.799887
v -0.530859 0.010833 -0.734081
vt 0.000000 0.000000
vt 0.000000 0.000000
vt 0.000000 0.000000
vt 0.000000 0.000000
vt 0.000000 0.000000
vt 0.000000 0.000000
vt 0.000000 0.000000
vt 0.000000 0.000000
vt 0.000000 0.000000
vt 0.000000 0.000000
vt 0.000000 0.000000
vt 0.000000 0.000000
vt 0.000000 0.000000
vt 0.000000 0.000000
vt 0.000000 0.000000
vt 0.000000 0.000000
vt 0.000000 0.000000
vt 0.000000 0.000000
vt 0.000000 0.000000
vt 0.000000 0.000000
vt 0.000000 0.000000
vt 0.000000 0.000000
vt 0.000000 0.000000
vt 0.000000 0.000000
vt 0.000000 0.000000
vt 0.000000 0.000000
vt 0.000000 0.000000
vt 0.000000 0.000000
vt 0.000000 0.000000
vn -0.0008 -1.0000 -0.0010
vn -0.0000 -1.0000 -0.0000
vn -0.0010 -1.0000 -0.0008
vn 0.0010 -1.0000 0.0008
vn 0.0012 -1.0000 0.0006
vn -0.0012 -1.0000 -0.0006
vn 0.0013 -1.0000 0.0003
vn -0.0013 -1.0000 -0.0003
vn 0.0013 -1.0000 -0.0000
vn -0.0013 -1.0000 -0.0000
vn 0.0013 -1.0000 -0.0003
vn -0.0013 -1.0000 0.0003
vn 0.0012 -1.0000 -0.0006
vn -0.0012 -1.0000 0.0006
vn 0.0010 -1.0000 -0.0008
vn -0.0010 -1.0000 0.0008
vn 0.0008 -1.0000 -0.0010
vn -0.0008 -1.0000 0.0010
vn 0.0006 -1.0000 -0.0012
vn -0.0006 -1.0000 0.0012
vn 0.0003 -1.0000 -0.0013
vn -0.0003 -1.0000 0.0013
vn 0.0000 -1.0000 -0.0013
vn -0.0000 -1.0000 0.0013
vn 0.0003 -1.0000 0.0013
vn -0.0003 -1.0000 -0.0013
vn 0.0006 -1.0000 0.0012
vn -0.0006 -1.0000 -0.0012
vn 0.0008 -1.0000 0.0010
usemtl None.001
s 1
f 1/1/1 2/2/2 3/3/3
f 4/4/4 2/2/2 5/5/5
f 3/3/3 2/2/2 6/6/6
f 5/5/5 2/2/2 7/7/7
f 6/6/6 2/2/2 8/8/8
f 7/7/7 2/2/2 9/9/9
f 8/8/8 2/2/2 10/10/10
f 9/9/9 2/2/2 11/11/11
f 10/10/10 2/2/2 12/12/12
f 11/11/11 2/2/2 13/13/13
f 12/12/12 2/2/2 14/14/14
f 13/13/13 2/2/2 15/15/15
f 14/14/14 2/2/2 16/16/16
f 15/15/15 2/2/2 17/17/17
f 16/16/16 2/2/2 18/18/18
f 17/17/17 2/2/2 19/19/19
f 18/18/18 2/2/2 20/20/20
f 19/19/19 2/2/2 21/21/21
f 20/20/20 2/2/2 22/22/22
f 21/21/21 2/2/2 23/23/23
f 24/24/24 2/2/2 25/25/25
f 22/22/22 2/2/2 24/24/24
f 23/23/23 2/2/2 26/26/26
f 25/25/25 2/2/2 27/27/27
f 26/26/26 2/2/2 28/28/28
f 27/27/27 2/2/2 29/29/29
f 28/28/28 2/2/2 1/1/1
f 29/29/29 2/2/2 4/4/4
o Bicchiere_GLASS__outline_top
v 0.857972 1.873289 0.632917
v 0.959700 3.115582 0.714043
v 0.772928 3.115582 0.900816
v 0.691802 1.873289 0.799086
v -0.908024 1.873289 -0.476731
v -1.025254 3.115582 -0.533185
v -0.884725 3.115582 -0.756835
v -0.782997 1.873289 -0.675711
v 0.982999 1.873289 0.433937
v 1.100229 3.115582 0.490393
v -0.985639 1.873289 -0.254919
v -1.112492 3.115582 -0.283872
v 1.060614 1.873289 0.212124
v 1.187467 3.115582 0.241079
v -1.011951 1.873289 -0.021396
v -1.142066 3.115582 -0.021395
v 1.086926 1.873289 -0.021397
v 1.217041 3.115582 -0.021397
v -0.985639 1.873289 0.212125
v -1.112492 3.115582 0.241080
v 1.060614 1.873289 -0.254920
v 1.187467 3.115582 -0.283873
v -0.908024 1.873289 0.433937
v -1.025254 3.115582 0.490394
v 0.982998 1.873289 -0.476732
v 1.100228 3.115582 -0.533187
v -0.782997 1.873289 0.632917
v -0.884725 3.115582 0.714044
v 0.857970 1.873289 -0.675712
v 0.959699 3.115582 -0.756837
v -0.616827 1.873289 0.799087
v -0.697952 3.115582 0.900816
v 0.691801 1.873289 -0.841881
v 0.772926 3.115582 -0.943609
v -0.417847 1.873289 0.924115
v -0.474302 3.115582 1.041344
v 0.492820 1.873289 -0.966909
v 0.549275 3.115582 -1.084139
v -0.196034 1.873289 1.001731
v -0.224988 3.115582 1.128583
v 0.271008 1.873289 -1.044524
v 0.299961 3.115582 -1.171377
v 0.037487 1.873289 1.028042
v 0.037487 3.115582 1.158157
v -0.196034 1.873289 -1.044524
v -0.224988 3.115582 -1.171377
v 0.037487 3.115582 -1.200951
v 0.037487 1.873289 -1.070835
v 0.271010 1.873289 1.001731
v 0.299964 3.115582 1.128583
v -0.417847 1.873289 -0.966907
v -0.474302 3.115582 -1.084138
v 0.492822 1.873289 0.924115
v 0.549277 3.115582 1.041344
v -0.616827 1.873289 -0.841881
v -0.697952 3.115582 -0.943608
v 0.750172 0.010832 0.546948
v 0.857972 1.873289 0.632917
v -0.783797 0.010833 -0.416907
v -0.908024 1.873289 -0.476731
v 0.858772 0.010832 0.374112
v 0.982999 1.873289 0.433937
v -0.851215 0.010832 -0.224238
v -0.985639 1.873289 -0.254919
v 0.926190 0.010832 0.181442
v 1.060614 1.873289 0.212124
v -0.874069 0.010832 -0.021397
v -1.011951 1.873289 -0.021397
v 0.949044 0.010832 -0.021398
v 1.086926 1.873289 -0.021397
v -0.851215 0.010832 0.181443
v -0.985639 1.873289 0.212125
v 0.926190 0.010832 -0.224239
v 1.060614 1.873289 -0.254920
v -0.783797 0.010832 0.374113
v -0.908024 1.873289 0.433937
v 0.858771 0.010833 -0.416908
v 0.982998 1.873289 -0.476732
v -0.675197 0.010832 0.546949
v -0.782997 1.873289 0.632917
v 0.750171 0.010833 -0.589745
v 0.857970 1.873289 -0.675712
v -0.530859 0.010832 0.691287
v -0.616827 1.873289 0.799087
v 0.605833 0.010833 -0.734081
v 0.691801 1.873289 -0.841882
v -0.358023 0.010832 0.799887
v -0.417847 1.873289 0.924115
v 0.432995 0.010833 -0.842683
v 0.492820 1.873289 -0.966909
v -0.165353 0.010832 0.867305
v -0.196034 1.873289 1.001731
v 0.240326 0.010833 -0.910099
v 0.271008 1.873289 -1.044524
v 0.037487 1.873289 -1.070835
v 0.037487 0.010833 -0.932954
v 0.037487 0.010832 0.890159
v 0.037487 1.873289 1.028042
v -0.165353 0.010833 -0.910099
v -0.196034 1.873289 -1.044524
v 0.240328 0.010832 0.867305
v 0.271010 1.873289 1.001731
v -0.358023 0.010833 -0.842682
v -0.417847 1.873289 -0.966907
v 0.432997 0.010832 0.799887
v 0.492822 1.873289 0.924115
v 0.691802 1.873289 0.799086
v 0.605834 0.010832 0.691286
v -0.530859 0.010833 -0.734081
v -0.616827 1.873289 -0.841881
v -0.782997 1.873289 -0.675711
v -0.675197 0.010833 -0.589744
vt 0.000000 0.000000
vt 0.000000 0.000000
vt 0.000000 0.000000
vt 0.000000 0.000000
vt 0.000000 0.000000
vt 0.000000 0.000000
vt 0.000000 0.000000
vt 0.000000 0.000000
vt 0.000000 0.000000
vt 0.000000 0.000000
vt 0.000000 0.000000
vt 0.000000 0.000000
vt 0.000000 0.000000
vt 0.000000 0.000000
vt 0.000000 0.000000
vt 0.000000 0.000000
vt 0.000000 0.000000
vt 0.000000 0.000000
vt 0.000000 0.000000
vt 0.000000 0.000000
vt 0.000000 0.000000
vt 0.000000 0.000000
vt 0.000000 0.000000
vt 0.000000 0.000000
vt 0.000000 0.000000
vt 0.000000 0.000000
vt 0.000000 0.000000
vt 0.000000 0.000000
vt 0.000000 0.000000
vt 0.000000 0.000000
vt 0.000000 0.000000
vt 0.000000 0.000000
vt 0.000000 0.000000
vt 0.000000 0.000000
vt 0.000000 0.000000
vt 0.000000 0.000000
vt 0.000000 0.000000
vt 0.000000 0.000000
vt 0.000000 0.000000
vt 0.000000 0.000000
vt 0.000000 0.000000
vt 0.000000 0.000000
vt 0.000000 0.000000
vt 0.000000 0.000000
vt 0.000000 0.000000
vt 0.000000 0.000000
vt 0.000000 0.000000
vt 0.000000 0.000000
vt 0.000000 0.000000
vt 0.000000 0.000000
vt 0.000000 0.000000
vt 0.000000 0.000000
vt 0.000000 0.000000
vt 0.000000 0.000000
vt 0.000000 0.000000
vt 0.000000 0.000000
vt 0.000000 0.000000
vt 0.000000 0.000000
vt 0.000000 0.000000
vt 0.000000 0.000000
vt 0.000000 0.000000
vt 0.000000 0.000000
vt 0.000000 0.000000
vt 0.000000 0.000000
vt 0.000000 0.000000
vt 0.000000 0.000000
vt 0.000000 0.000000
vt 0.000000 0.000000
vt 0.000000 0.000000
vt 0.000000 0.000000
vt 0.000000 0.000000
vt 0.000000 0.000000
vt 0.000000 0.000000
vt 0.000000 0.000000
vt 0.000000 0.000000
vt 0.000000 0.000000
vt 0.000000 0.000000
vt 0.000000 0.000000
vt 0.000000 0.000000
vt 0.000000 0.000000
vt 0.000000 0.000000
vt 0.000000 0.000000
vt 0.000000 0.000000
vt 0.000000 0.000000
vt 0.000000 0.000000
vt 0.000000 0.000000
vt 0.000000 0.000000
vt 0.000000 0.000000
vt 0.000000 0.000000
vt 0.000000 0.000000
vt 0.000000 0.000000
vt 0.000000 0.000000
vt 0.000000 0.000000
vt 0.000000 0.000000
vt 0.000000 0.000000
vt 0.000000 0.000000
vt 0.000000 0.000000
vt 0.000000 0.000000
vt 0.000000 0.000000
vt 0.000000 0.000000
vt 0.000000 0.000000
vt 0.000000 0.000000
vt 0.000000 0.000000
vt 0.000000 0.000000
vt 0.000000 0.000000
vt 0.000000 0.000000
vt 0.000000 0.000000
vt 0.000000 0.000000
vt 0.000000 0.000000
vt 0.000000 0.000000
vt 0.000000 0.000000
vt 0.000000 0.000000
vn 0.7776 -0.1042 0.6201
vn 0.6201 -0.1042 0.7776
vn -0.8961 -0.1042 -0.4315
vn -0.7776 -0.1042 -0.6201
vn 0.8961 -0.1042 0.4315
vn -0.9696 -0.1042 -0.2213
vn 0.9696 -0.1042 0.2213
vn -0.9946 -0.1042 0.0000
vn 0.9946 -0.1042 -0.0000
vn -0.9696 -0.1042 0.2213
vn 0.9696 -0.1042 -0.2213
vn -0.8961 -0.1042 0.4315
vn 0.8961 -0.1042 -0.4315
vn -0.7776 -0.1042 0.6201
vn 0.7776 -0.1042 -0.6201
vn -0.6201 -0.1042 0.7776
vn 0.6201 -0.1042 -0.7776
vn -0.4315 -0.1042 0.8961
vn 0.4315 -0.1042 -0.8961
vn -0.2213 -0.1042 0.9696
vn 0.2213 -0.1042 -0.9696
vn -0.0000 -0.1042 0.9946
vn -0.2213 -0.1042 -0.9696
vn 0.0000 -0.1042 -0.9946
vn 0.2213 -0.1042 0.9696
vn -0.4315 -0.1042 -0.8961
vn 0.4315 -0.1042 0.8961
vn -0.6201 -0.1042 -0.7776
vn 0.7797 -0.0738 0.6218
vn 0.6218 -0.0738 0.7797
vn -0.8985 -0.0738 -0.4327
vn -0.7797 -0.0738 -0.6218
vn 0.8985 -0.0738 0.4327
vn -0.9723 -0.0738 -0.2219
vn 0.9723 -0.0738 0.2219
vn -0.9973 -0.0738 0.0000
vn 0.9973 -0.0738 0.0000
vn -0.9723 -0.0738 0.2219
vn 0.9723 -0.0738 -0.2219
vn -0.8985 -0.0738 0.4327
vn 0.8985 -0.0738 -0.4327
vn -0.7797 -0.0738 0.6218
vn 0.7797 -0.0738 -0.6218
vn -0.6218 -0.0738 0.7797
vn 0.6218 -0.0738 -0.7797
vn -0.4327 -0.0738 0.8985
vn 0.4327 -0.0738 -0.8985
vn -0.2219 -0.0738 0.9723
vn 0.2219 -0.0738 -0.9723
vn -0.0000 -0.0738 0.9973
vn -0.2219 -0.0738 -0.9723
vn 0.0000 -0.0738 -0.9973
vn 0.2219 -0.0738 0.9723
vn -0.4327 -0.0738 -0.8985
vn 0.4327 -0.0738 0.8985
vn -0.6218 -0.0738 -0.7797
usemtl None.002
s 1
f 30/30/30 31/31/30 32/32/31 33/33/31
f 34/34/32 35/35/32 36/36/33 37/37/33
f 38/38/34 39/39/34 31/31/30 30/30/30
f 40/40/35 41/41/35 35/35/32 34/34/32
f 42/42/36 43/43/36 39/39/34 38/38/34
f 44/44/37 45/45/37 41/41/35 40/40/35
f 46/46/38 47/47/38 43/43/36 42/42/36
f 48/48/39 49/49/39 45/45/37 44/44/37
f 50/50/40 51/51/40 47/47/38 46/46/38
f 52/52/41 53/53/41 49/49/39 48/48/39
f 54/54/42 55/55/42 51/51/40 50/50/40
f 56/56/43 57/57/43 53/53/41 52/52/41
f 58/58/44 59/59/44 55/55/42 54/54/42
f 60/60/45 61/61/45 57/57/43 56/56/43
f 62/62/46 63/63/46 59/59/44 58/58/44
f 64/64/47 65/65/47 61/61/45 60/60/45
f 66/66/48 67/67/48 63/63/46 62/62/46
f 68/68/49 69/69/49 65/65/47 64/64/47
f 70/70/50 71/71/50 67/67/48 66/66/48
f 72/72/51 73/73/51 69/69/49 68/68/49
f 74/74/52 75/75/52 76/76/53 77/77/53
f 77/77/53 76/76/53 71/71/50 70/70/50
f 78/78/54 79/79/54 73/73/51 72/72/51
f 80/80/55 81/81/55 75/75/52 74/74/52
f 82/82/56 83/83/56 79/79/54 78/78/54
f 84/84/57 85/85/57 81/81/55 80/80/55
f 33/33/31 32/32/31 83/83/56 82/82/56
f 37/37/33 36/36/33 85/85/57 84/84/57
usemtl None.001
f 86/86/58 87/87/58 136/88/59 137/89/59
f 88/90/60 89/91/60 140/92/61 141/93/61
f 90/94/62 91/95/62 87/87/58 86/86/58
f 92/96/63 93/97/63 89/91/60 88/90/60
f 94/98/64 95/99/64 91/95/62 90/94/62
f 96/100/65 97/101/65 93/97/63 92/96/63
f 98/102/66 99/103/66 95/99/64 94/98/64
f 100/104/67 101/105/67 97/101/65 96/100/65
f 102/106/68 103/107/68 99/103/66 98/102/66
f 104/108/69 105/109/69 101/105/67 100/104/67
f 106/110/70 107/111/70 103/107/68 102/106/68
f 108/112/71 109/113/71 105/109/69 104/108/69
f 110/114/72 111/115/72 107/111/70 106/110/70
f 112/116/73 113/117/73 109/113/71 108/112/71
f 114/118/74 115/119/74 111/115/72 110/114/72
f 116/120/75 117/121/75 113/117/73 112/116/73
f 118/122/76 119/123/76 115/119/74 114/118/74
f 120/124/77 121/125/77 117/121/75 116/120/75
f 122/126/78 123/127/78 119/123/76 118/122/76
f 126/128/79 127/129/79 121/125/77 120/124/77
f 128/130/80 129/131/80 124/132/81 125/133/81
f 125/133/81 124/132/81 123/127/78 122/126/78
f 130/134/82 131/135/82 127/129/79 126/128/79
f 132/136/83 133/137/83 129/131/80 128/130/80
f 134/138/84 135/139/84 131/135/82 130/134/82
f 138/140/85 139/141/85 133/137/83 132/136/83
f 137/89/59 136/88/59 135/139/84 134/138/84
f 141/93/61 140/92/61 139/141/85 138/140/85
o Bicchiere_bordo_GLASS__edge
v 0.959700 3.115582 0.714043
v 0.772928 3.115582 0.900816
v -1.025254 3.115582 -0.533186
v -0.884725 3.115582 -0.756835
v 1.100229 3.115582 0.490393
v -1.112492 3.115582 -0.283872
v 1.187467 3.115582 0.241079
v -1.142066 3.115582 -0.021395
v 1.217041 3.115582 -0.021397
v -1.112492 3.115582 0.241080
v 1.187467 3.115582 -0.283873
v -1.025254 3.115582 0.490394
v 1.100228 3.115582 -0.533187
v -0.884725 3.115582 0.714044
v 0.959699 3.115582 -0.756837
v -0.697952 3.115582 0.900816
v 0.772926 3.115582 -0.943609
v -0.474302 3.115582 1.041344
v 0.549275 3.115582 -1.084139
v -0.224988 3.115582 1.128583
v 0.299961 3.115582 -1.171377
v 0.037487 3.115582 1.158157
v -0.224988 3.115582 -1.171377
v 0.037487 3.115582 -1.200951
v 0.299964 3.115582 1.128583
v -0.474302 3.115582 -1.084138
v 0.549277 3.115582 1.041344
v -0.697952 3.115582 -0.943608
v 0.913590 3.115582 0.677272
v 0.736156 3.115582 0.854706
v -0.972117 3.115582 -0.507596
v -0.838615 3.115582 -0.720064
v 1.047091 3.115582 0.464803
v -1.054994 3.115582 -0.270747
v 1.129968 3.115582 0.227954
v -1.083089 3.115582 -0.021395
v 1.158064 3.115582 -0.021396
v -1.054994 3.115582 0.227955
v 1.129968 3.115582 -0.270748
v -0.972117 3.115582 0.464804
v 1.047091 3.115582 -0.507597
v -0.838615 3.115582 0.677272
v 0.913589 3.115582 -0.720065
v -0.661180 3.115582 0.854706
v 0.736154 3.115582 -0.897499
v -0.448712 3.115582 0.988208
v 0.523686 3.115582 -1.031000
v -0.211865 3.115582 1.071085
v 0.286837 3.115582 -1.113877
v 0.037487 3.115582 1.099180
v -0.211865 3.115582 -1.113877
v 0.037487 3.115582 -1.141973
v 0.286839 3.115582 1.071085
v -0.448713 3.115582 -1.031000
v 0.523688 3.115582 0.988208
v -0.661181 3.115582 -0.897498
vt 0.000000 0.000000
vt 0.000000 0.000000
vt 0.000000 0.000000
vt 0.000000 0.000000
vt 0.000000 0.000000
vt 0.000000 0.000000
vt 0.000000 0.000000
vt 0.000000 0.000000
vt 0.000000 0.000000
vt 0.000000 0.000000
vt 0.000000 0.000000
vt 0.000000 0.000000
vt 0.000000 0.000000
vt 0.000000 0.000000
vt 0.000000 0.000000
vt 0.000000 0.000000
vt 0.000000 0.000000
vt 0.000000 0.000000
vt 0.000000 0.000000
vt 0.000000 0.000000
vt 0.000000 0.000000
vt 0.000000 0.000000
vt 0.000000 0.000000
vt 0.000000 0.000000
vt 0.000000 0.000000
vt 0.000000 0.000000
vt 0.000000 0.000000
vt 0.000000 0.000000
vt 0.000000 0.000000
vt 0.000000 0.000000
vt 0.000000 0.000000
vt 0.000000 0.000000
vt 0.000000 0.000000
vt 0.000000 0.000000
vt 0.000000 0.000000
vt 0.000000 0.000000
vt 0.000000 0.000000
vt 0.000000 0.000000
vt 0.000000 0.000000
vt 0.000000 0.000000
vt 0.000000 0.000000
vt 0.000000 0.000000
vt 0.000000 0.000000
vt 0.000000 0.000000
vt 0.000000 0.000000
vt 0.000000 0.000000
vt 0.000000 0.000000
vt 0.000000 0.000000
vt 0.000000 0.000000
vt 0.000000 0.000000
vt 0.000000 0.000000
vt 0.000000 0.000000
vt 0.000000 0.000000
vt 0.000000 0.000000
vt 0.000000 0.000000
vt 0.000000 0.000000
vn 0.0000 1.0000 -0.0000
usemtl None.002
s 1
f 149/142/86 151/143/86 179/144/86 177/145/86
f 153/146/86 155/147/86 183/148/86 181/149/86
f 159/150/86 161/151/86 189/152/86 187/153/86
f 168/154/86 143/155/86 171/156/86 196/157/86
f 151/143/86 153/146/86 181/149/86 179/144/86
f 146/158/86 148/159/86 176/160/86 174/161/86
f 143/155/86 142/162/86 170/163/86 171/156/86
f 150/164/86 152/165/86 180/166/86 178/167/86
f 156/168/86 158/169/86 186/170/86 184/171/86
f 169/172/86 145/173/86 173/174/86 197/175/86
f 160/176/86 162/177/86 190/178/86 188/179/86
f 165/180/86 164/181/86 192/182/86 193/183/86
f 166/184/86 168/154/86 196/157/86 194/185/86
f 145/173/86 144/186/86 172/187/86 173/174/86
f 163/188/86 166/184/86 194/185/86 191/189/86
f 162/177/86 165/180/86 193/183/86 190/178/86
f 147/190/86 149/142/86 177/145/86 175/191/86
f 154/192/86 156/168/86 184/171/86 182/193/86
f 157/194/86 159/150/86 187/153/86 185/195/86
f 167/196/86 169/172/86 197/175/86 195/197/86
f 161/151/86 163/188/86 191/189/86 189/152/86
f 148/159/86 150/164/86 178/167/86 176/160/86
f 152/165/86 154/192/86 182/193/86 180/166/86
f 144/186/86 147/190/86 175/191/86 172/187/86
f 158/169/86 160/176/86 188/179/86 186/170/86
f 164/181/86 167/196/86 195/197/86 192/182/86
f 142/162/86 146/158/86 174/161/86 170/163/86
f 155/147/86 157/194/86 185/195/86 183/148/86
