# Blender v3.0.0 OBJ File: 'JugNuova.blend'
# www.blender.org
mtllib AirGlassContact.mtl
o Contatto_aria_vetro_Cube.003
v -0.284817 1.408550 -0.010804
v -0.197667 1.594323 -0.009177
v -0.168121 1.774483 -0.006848
v -0.195515 1.951624 -0.004017
v -0.221957 2.137298 -0.001130
v -0.255226 2.271548 -0.000160
v -0.272158 1.407425 -0.058656
v -0.186702 1.591002 -0.040789
v -0.159348 1.770931 -0.033477
v -0.185665 1.950134 -0.035375
v -0.210264 2.136760 -0.038387
v -0.241653 2.271545 -0.044394
v -0.222405 1.406633 -0.100788
v -0.152791 1.589785 -0.068509
v -0.130625 1.770710 -0.056671
v -0.153105 1.949710 -0.062807
v -0.174236 2.136945 -0.071003
v -0.199681 2.271561 -0.082848
v -0.145480 1.406675 -0.132020
v -0.100253 1.589563 -0.089132
v -0.086097 1.770275 -0.073967
v -0.101407 1.950036 -0.083228
v -0.117380 2.137080 -0.095146
v -0.135336 2.271572 -0.111557
v -0.050691 1.406293 -0.148638
v -0.035290 1.589094 -0.100054
v -0.030845 1.770141 -0.083122
v -0.036839 1.949806 -0.093943
v -0.043194 2.137193 -0.107943
v -0.050400 2.271580 -0.126831
v 0.050333 1.406293 -0.148638
v 0.033963 1.589094 -0.100054
v 0.028104 1.770141 -0.083122
v 0.032365 1.949806 -0.093942
v 0.036979 2.137193 -0.107943
v 0.043578 2.271580 -0.126831
v 0.142939 1.408222 -0.131316
v 0.098935 1.589563 -0.089132
v 0.083366 1.770275 -0.073967
v 0.096959 1.950036 -0.083228
v 0.111178 2.137080 -0.095146
v 0.128514 2.271572 -0.111557
v 0.218726 1.408150 -0.100265
v 0.151468 1.589785 -0.068509
v 0.127894 1.770710 -0.056671
v 0.148653 1.949710 -0.062807
v 0.168048 2.136945 -0.071002
v 0.192859 2.271561 -0.082847
v 0.267890 1.408436 -0.058428
v 0.185420 1.590874 -0.040803
v 0.156648 1.770931 -0.033477
v 0.181227 1.950134 -0.035375
v 0.204236 2.136665 -0.038436
v 0.235307 2.271543 -0.044524
v 0.284476 1.409904 -0.010802
v 0.196297 1.594323 -0.009177
v 0.165339 1.774483 -0.006848
v 0.191016 1.951624 -0.004016
v 0.216025 2.137110 -0.001177
v 0.248583 2.271547 -0.000184
v 0.267190 1.409307 0.036739
v 0.184233 1.592646 0.022291
v 0.155141 1.772930 0.019562
v 0.179025 1.951556 0.027166
v 0.202259 2.137238 0.035886
v 0.233201 2.271552 0.043792
v 0.217740 1.408949 0.078545
v 0.150075 1.591375 0.049961
v 0.126104 1.772611 0.042769
v 0.145320 1.950949 0.054537
v 0.164263 2.137426 0.068417
v 0.189472 2.271562 0.082442
v 0.142084 1.409012 0.109571
v 0.097687 1.591143 0.070519
v 0.081803 1.771954 0.060010
v 0.094102 1.951491 0.074839
v 0.105993 2.137534 0.092533
v 0.122479 2.271574 0.111128
v 0.049211 1.408540 0.126086
v 0.033468 1.590643 0.081448
v 0.027469 1.771929 0.069164
v 0.031136 1.951073 0.085620
v 0.034731 2.137606 0.105351
v 0.040304 2.271581 0.126392
v -0.049598 1.408533 0.126086
v -0.034854 1.590643 0.081448
v -0.030297 1.771929 0.069164
v -0.035699 1.951073 0.085620
v -0.041011 2.137606 0.105351
v -0.047143 2.271581 0.126392
v -0.142472 1.409012 0.109571
v -0.099064 1.591143 0.070519
v -0.084615 1.771954 0.060010
v -0.098652 1.951491 0.074839
v -0.112266 2.137534 0.092533
v -0.129318 2.271574 0.111128
v -0.218126 1.408958 0.078544
v -0.151458 1.591375 0.049960
v -0.128926 1.772611 0.042769
v -0.149858 1.950949 0.054537
v -0.170525 2.137426 0.068416
v -0.196311 2.271562 0.082441
v -0.267582 1.407792 0.037005
v -0.185614 1.592646 0.022291
v -0.157937 1.772930 0.019562
v -0.183563 1.951556 0.027166
v -0.208511 2.137238 0.035886
v -0.240039 2.271552 0.043791
vt 0.000000 0.000000
vt 0.000000 0.000000
vt 0.000000 0.000000
vt 0.000000 0.000000
vt 0.000000 0.000000
vt 0.000000 0.000000
vt 0.000000 0.000000
vt 0.000000 0.000000
vt 0.000000 0.000000
vt 0.000000 0.000000
vt 0.000000 0.000000
vt 0.000000 0.000000
vt 0.000000 0.000000
vt 0.000000 0.000000
vt 0.000000 0.000000
vt 0.000000 0.000000
vt 0.000000 0.000000
vt 0.000000 0.000000
vt 0.000000 0.000000
vt 0.000000 0.000000
vt 0.000000 0.000000
vt 0.000000 0.000000
vt 0.000000 0.000000
vt 0.000000 0.000000
vt 0.000000 0.000000
vt 0.000000 0.000000
vt 0.000000 0.000000
vt 0.000000 0.000000
vt 0.000000 0.000000
vt 0.000000 0.000000
vt 0.000000 0.000000
vt 0.000000 0.000000
vt 0.000000 0.000000
vt 0.000000 0.000000
vt 0.000000 0.000000
vt 0.000000 0.000000
vt 0.000000 0.000000
vt 0.000000 0.000000
vt 0.000000 0.000000
vt 0.000000 0.000000
vt 0.000000 0.000000
vt 0.000000 0.000000
vt 0.000000 0.000000
vt 0.000000 0.000000
vt 0.000000 0.000000
vt 0.000000 0.000000
vt 0.000000 0.000000
vt 0.000000 0.000000
vt 0.000000 0.000000
vt 0.000000 0.000000
vt 0.000000 0.000000
vt 0.000000 0.000000
vt 0.000000 0.000000
vt 0.000000 0.000000
vt 0.000000 0.000000
vt 0.000000 0.000000
vt 0.000000 0.000000
vt 0.000000 0.000000
vt 0.000000 0.000000
vt 0.000000 0.000000
vt 0.000000 0.000000
vt 0.000000 0.000000
vt 0.000000 0.000000
vt 0.000000 0.000000
vt 0.000000 0.000000
vt 0.000000 0.000000
vt 0.000000 0.000000
vt 0.000000 0.000000
vt 0.000000 0.000000
vt 0.000000 0.000000
vt 0.000000 0.000000
vt 0.000000 0.000000
vt 0.000000 0.000000
vt 0.000000 0.000000
vt 0.000000 0.000000
vt 0.000000 0.000000
vt 0.000000 0.000000
vt 0.000000 0.000000
vt 0.000000 0.000000
vt 0.000000 0.000000
vt 0.000000 0.000000
vt 0.000000 0.000000
vt 0.000000 0.000000
vt 0.000000 0.000000
vt 0.000000 0.000000
vt 0.000000 0.000000
vt 0.000000 0.000000
vt 0.000000 0.000000
vt 0.000000 0.000000
vt 0.000000 0.000000
vt 0.000000 0.000000
vt 0.000000 0.000000
vt 0.000000 0.000000
vt 0.000000 0.000000
vt 0.000000 0.000000
vt 0.000000 0.000000
vt 0.000000 0.000000
vt 0.000000 0.000000
vt 0.000000 0.000000
vt 0.000000 0.000000
vt 0.000000 0.000000
vt 0.000000 0.000000
vt 0.000000 0.000000
vt 0.000000 0.000000
vt 0.000000 0.000000
vt 0.000000 0.000000
vt 0.000000 0.000000
vt 0.000000 0.000000
vn -0.9460 -0.1418 -0.2915
vn -0.9471 -0.1299 -0.2935
vn -0.9302 -0.2289 -0.2869
vn -0.8639 0.4185 -0.2803
vn -0.9298 0.1558 -0.3335
vn -0.6341 -0.1036 -0.7663
vn -0.6554 -0.1026 -0.7482
vn -0.6613 -0.1876 -0.7263
vn -0.5953 0.3506 -0.7230
vn -0.6240 0.1265 -0.7711
vn -0.3612 0.1055 -0.9265
vn -0.3639 -0.0782 -0.9282
vn -0.3780 -0.0870 -0.9217
vn -0.3945 -0.1587 -0.9051
vn -0.3551 0.2937 -0.8875
vn -0.1625 0.2647 -0.9505
vn -0.1635 0.0955 -0.9819
vn -0.1634 -0.0647 -0.9844
vn -0.1666 -0.0780 -0.9829
vn -0.1718 -0.1440 -0.9745
vn 0.0000 0.2569 -0.9664
vn 0.0000 0.0931 -0.9957
vn 0.0000 -0.0601 -0.9982
vn 0.0000 -0.0745 -0.9972
vn 0.0000 -0.1392 -0.9903
vn 0.1718 -0.1433 -0.9747
vn 0.1663 0.2644 -0.9500
vn 0.1635 0.0968 -0.9818
vn 0.1634 -0.0631 -0.9845
vn 0.1666 -0.0764 -0.9831
vn 0.3640 -0.0747 -0.9284
vn 0.3781 -0.0835 -0.9220
vn 0.3946 -0.1569 -0.9054
vn 0.3572 0.2903 -0.8878
vn 0.3611 0.1082 -0.9262
vn 0.6231 0.1313 -0.7710
vn 0.6342 -0.0975 -0.7670
vn 0.6545 -0.0968 -0.7499
vn 0.6576 -0.1850 -0.7303
vn 0.5991 0.3444 -0.7228
vn 0.8522 0.4132 -0.3210
vn 0.9292 0.1630 -0.3317
vn 0.9476 -0.1329 -0.2904
vn 0.9477 -0.1225 -0.2946
vn 0.9316 -0.2255 -0.2849
vn 0.8520 0.4079 0.3282
vn 0.9194 0.1536 0.3622
vn 0.9254 -0.1393 0.3526
vn 0.9274 -0.1314 0.3501
vn 0.9162 -0.2274 0.3299
vn 0.6439 -0.1951 0.7398
vn 0.5989 0.3324 0.7286
vn 0.6214 0.1125 0.7754
vn 0.6243 -0.1173 0.7723
vn 0.6370 -0.1184 0.7617
vn 0.3731 -0.1090 0.9214
vn 0.3827 -0.1700 0.9081
vn 0.3589 0.2758 0.8917
vn 0.3621 0.0852 0.9282
vn 0.3640 -0.1009 0.9259
vn 0.1663 0.0720 0.9834
vn 0.1672 -0.0931 0.9815
vn 0.1725 -0.1055 0.9793
vn 0.1777 -0.1583 0.9713
vn 0.1653 0.2467 0.9549
vn -0.0000 0.2381 0.9712
vn -0.0000 0.0676 0.9977
vn -0.0000 -0.0915 0.9958
vn -0.0000 -0.1052 0.9945
vn -0.0000 -0.1552 0.9879
vn -0.1653 0.2458 0.9551
vn -0.1663 0.0706 0.9835
vn -0.1672 -0.0947 0.9814
vn -0.1725 -0.1071 0.9792
vn -0.1777 -0.1590 0.9712
vn -0.3591 0.2740 0.8922
vn -0.3622 0.0824 0.9285
vn -0.3639 -0.1043 0.9256
vn -0.3730 -0.1124 0.9210
vn -0.3826 -0.1715 0.9079
vn -0.6367 -0.1242 0.7611
vn -0.6436 -0.1978 0.7394
vn -0.6018 0.3293 0.7276
vn -0.6220 0.1077 0.7756
vn -0.6241 -0.1233 0.7716
vn -0.9245 -0.1481 0.3512
vn -0.9281 -0.1392 0.3454
vn -0.9171 -0.2320 0.3242
vn -0.8549 0.4017 0.3282
vn -0.9206 0.1466 0.3619
usemtl Material
s off
f 3/1/1 4/2/1 10/3/1 9/4/1
f 4/2/2 5/5/2 11/6/2 10/3/2
f 5/5/3 6/7/3 12/8/3 11/6/3
f 1/9/4 2/10/4 8/11/4 7/12/4
f 2/10/5 3/1/5 9/4/5 8/11/5
f 9/4/6 10/3/6 16/13/6 15/14/6
f 10/3/7 11/6/7 17/15/7 16/13/7
f 11/6/8 12/8/8 18/16/8 17/15/8
f 7/12/9 8/11/9 14/17/9 13/18/9
f 8/11/10 9/4/10 15/14/10 14/17/10
f 14/17/11 15/14/11 21/19/11 20/20/11
f 15/14/12 16/13/12 22/21/12 21/19/12
f 16/13/13 17/15/13 23/22/13 22/21/13
f 17/15/14 18/16/14 24/23/14 23/22/14
f 13/18/15 14/17/15 20/20/15 19/24/15
f 19/24/16 20/20/16 26/25/16 25/26/16
f 20/20/17 21/19/17 27/27/17 26/25/17
f 21/19/18 22/21/18 28/28/18 27/27/18
f 22/21/19 23/22/19 29/29/19 28/28/19
f 23/22/20 24/23/20 30/30/20 29/29/20
f 25/26/21 26/25/21 32/31/21 31/32/21
f 26/25/22 27/27/22 33/33/22 32/31/22
f 27/27/23 28/28/23 34/34/23 33/33/23
f 28/28/24 29/29/24 35/35/24 34/34/24
f 29/29/25 30/30/25 36/36/25 35/35/25
f 35/35/26 36/36/26 42/37/26 41/38/26
f 31/32/27 32/31/27 38/39/27 37/40/27
f 32/31/28 33/33/28 39/41/28 38/39/28
f 33/33/29 34/34/29 40/42/29 39/41/29
f 34/34/30 35/35/30 41/38/30 40/42/30
f 39/41/31 40/42/31 46/43/31 45/44/31
f 40/42/32 41/38/32 47/45/32 46/43/32
f 41/38/33 42/37/33 48/46/33 47/45/33
f 37/40/34 38/39/34 44/47/34 43/48/34
f 38/39/35 39/41/35 45/44/35 44/47/35
f 44/47/36 45/44/36 51/49/36 50/50/36
f 45/44/37 46/43/37 52/51/37 51/49/37
f 46/43/38 47/45/38 53/52/38 52/51/38
f 47/45/39 48/46/39 54/53/39 53/52/39
f 43/48/40 44/47/40 50/50/40 49/54/40
f 49/54/41 50/50/41 56/55/41 55/56/41
f 50/50/42 51/49/42 57/57/42 56/55/42
f 51/49/43 52/51/43 58/58/43 57/57/43
f 52/51/44 53/52/44 59/59/44 58/58/44
f 53/52/45 54/53/45 60/60/45 59/59/45
f 55/56/46 56/55/46 62/61/46 61/62/46
f 56/55/47 57/57/47 63/63/47 62/61/47
f 57/57/48 58/58/48 64/64/48 63/63/48
f 58/58/49 59/59/49 65/65/49 64/64/49
f 59/59/50 60/60/50 66/66/50 65/65/50
f 65/65/51 66/66/51 72/67/51 71/68/51
f 61/62/52 62/61/52 68/69/52 67/70/52
f 62/61/53 63/63/53 69/71/53 68/69/53
f 63/63/54 64/64/54 70/72/54 69/71/54
f 64/64/55 65/65/55 71/68/55 70/72/55
f 70/72/56 71/68/56 77/73/56 76/74/56
f 71/68/57 72/67/57 78/75/57 77/73/57
f 67/70/58 68/69/58 74/76/58 73/77/58
f 68/69/59 69/71/59 75/78/59 74/76/59
f 69/71/60 70/72/60 76/74/60 75/78/60
f 74/76/61 75/78/61 81/79/61 80/80/61
f 75/78/62 76/74/62 82/81/62 81/79/62
f 76/74/63 77/73/63 83/82/63 82/81/63
f 77/73/64 78/75/64 84/83/64 83/82/64
f 73/77/65 74/76/65 80/80/65 79/84/65
f 79/84/66 80/80/66 86/85/66 85/86/66
f 80/80/67 81/79/67 87/87/67 86/85/67
f 81/79/68 82/81/68 88/88/68 87/87/68
f 82/81/69 83/82/69 89/89/69 88/88/69
f 83/82/70 84/83/70 90/90/70 89/89/70
f 85/86/71 86/85/71 92/91/71 91/92/71
f 86/85/72 87/87/72 93/93/72 92/91/72
f 87/87/73 88/88/73 94/94/73 93/93/73
f 88/88/74 89/89/74 95/95/74 94/94/74
f 89/89/75 90/90/75 96/96/75 95/95/75
f 91/92/76 92/91/76 98/97/76 97/98/76
f 92/91/77 93/93/77 99/99/77 98/97/77
f 93/93/78 94/94/78 100/100/78 99/99/78
f 94/94/79 95/95/79 101/101/79 100/100/79
f 95/95/80 96/96/80 102/102/80 101/101/80
f 100/100/81 101/101/81 107/103/81 106/104/81
f 101/101/82 102/102/82 108/105/82 107/103/82
f 97/98/83 98/97/83 104/106/83 103/107/83
f 98/97/84 99/99/84 105/108/84 104/106/84
f 99/99/85 100/100/85 106/104/85 105/108/85
f 105/108/86 106/104/86 4/2/86 3/1/86
f 106/104/87 107/103/87 5/5/87 4/2/87
f 107/103/88 108/105/88 6/7/88 5/5/88
f 103/107/89 104/106/89 2/10/89 1/9/89
f 104/106/90 105/108/90 3/1/90 2/10/90
